Coordinates
version=1
nRows=14
nColumns=36
inDegrees=yes

Units are S.I. units (second, meters, Newtons, ...)
If the header above contains a line with 'inDegrees', this indicates whether rotational values are in degrees (yes) or radians (no).

endheader
time	pelvis_tilt	pelvis_list	pelvis_rotation	pelvis_tx	pelvis_ty	pelvis_tz	hip_flexion_r	hip_adduction_r	hip_rotation_r	knee_angle_r	knee_angle_r_beta	ankle_angle_r	subtalar_angle_r	mtp_angle_r	hip_flexion_l	hip_adduction_l	hip_rotation_l	knee_angle_l	knee_angle_l_beta	ankle_angle_l	subtalar_angle_l	mtp_angle_l	lumbar_extension	lumbar_bending	lumbar_rotation	arm_flex_r	arm_add_r	arm_rot_r	elbow_flex_r	pro_sup_r	arm_flex_l	arm_add_l	arm_rot_l	elbow_flex_l	pro_sup_l
      5.86666670	     -1.81816571	      0.42168501	     -6.01132766	      0.52740946	      0.93803934	     -0.05998587	     17.32124802	     -4.17472353	    -10.22822511	     42.38706050	      0.73979377	      5.41508914	    -28.75374229	     -7.49999987	     17.17982736	      0.63196339	     -8.57089451	     15.61702962	      0.27256859	      2.64161773	    -13.82699437	     -7.49999987	     -5.21787570	     -1.70959658	     -4.72818779	      6.44510477	    -13.78325402	     31.28341480	    111.92346517	     88.94050717	      0.20831690	    -21.40632089	     32.95270801	     98.03281687	     83.99956561
      5.88333330	     -1.80694898	      0.39410050	     -5.39427351	      0.52689137	      0.94273157	     -0.06060279	     13.93881582	     -3.44902500	    -10.00535926	     38.30327390	      0.66851824	      2.63769423	    -29.68645865	     -7.49999987	     17.87821350	      0.59702046	     -8.51087142	     16.10136681	      0.28102186	      2.27702909	    -13.43291912	     -7.49999987	     -5.31766210	     -1.63671264	     -4.26944079	      6.35003328	    -13.69976452	     30.65364900	    112.14890628	     89.03518893	     -1.82684621	    -20.83484622	     31.97384067	     97.85220408	     83.92953439
      5.90000000	     -1.65603129	      0.45912392	     -4.54957617	      0.52083144	      0.93578068	     -0.05828395	     11.09355156	     -2.86641080	    -10.11698745	     34.60858869	      0.60403382	      1.20622268	    -30.68103352	     -7.49999987	     18.71097737	      0.65949897	     -8.18495384	     17.18263971	      0.29989364	      2.27260614	    -13.97372724	     -7.49999987	     -5.54458349	     -1.61148518	     -4.04381106	      6.20315176	    -13.52894794	     30.35423340	    112.37570657	     87.35570133	     -3.27816545	    -20.58059139	     31.08773693	     97.84746761	     82.24161332
      5.91666670	     -1.24461591	      0.57045703	     -4.19164133	      0.51379533	      0.93234359	     -0.06125513	      7.55328527	     -2.12324683	     -9.78998802	     29.26522862	      0.51077460	      1.46874388	    -31.19528321	     -7.49999987	     19.16969078	      0.79834222	     -8.05120650	     18.08434175	      0.31563131	      2.11133166	    -14.64114299	     -7.49999987	     -5.84021859	     -1.35424010	     -3.47416883	      6.17737900	    -13.44673986	     30.57903654	    112.28301096	     86.36383479	     -4.22095502	    -20.57269310	     30.53595823	     97.63505691	     81.31434937
      5.93333330	     -0.70474557	      0.71949162	     -3.89117246	      0.51271473	      0.93057026	     -0.06074257	      3.62880268	     -1.37649778	     -9.91185172	     23.00536520	      0.40151937	      3.22569844	    -30.79476600	     -7.49999987	     19.06073239	      0.99717220	     -7.83438649	     18.38353624	      0.32085324	      2.06843413	    -15.19278189	     -7.49999987	     -6.02833056	     -1.05993774	     -3.56981290	      6.73092985	    -13.16407772	     31.74178754	    111.60715827	     88.56090126	     -6.10735827	    -20.58532595	     28.86257109	     97.41600716	     82.99571823
      5.95000000	     -0.41078672	      0.59815069	     -3.77253940	      0.50496594	      0.93069901	     -0.05763756	      0.54378335	     -0.26116677	     -9.93926135	     17.22161202	      0.30057383	      4.89589331	    -30.41442121	     -7.49999987	     19.56543863	      0.73251078	     -7.37432229	     19.36477892	      0.33797915	      2.48773982	    -15.67402843	     -7.49999987	     -5.90343504	     -0.50936001	     -2.33400572	      6.36445621	    -13.10215223	     31.98492366	    111.49490482	     88.57920001	     -7.35750770	    -20.43331224	     28.13181426	     96.77265254	     82.96459432
      5.96666670	      0.32042968	      0.29394286	     -3.87054303	      0.49214700	      0.92853243	     -0.05798537	     -1.88366717	      0.76011407	    -10.02867632	     12.82630344	      0.22386123	      6.87355935	    -29.19896007	     -7.49999987	     19.95476410	      0.38231107	     -6.74882287	     20.49377538	      0.35768386	      3.31753803	    -15.78145734	     -7.49999987	     -7.06099295	      0.18169456	     -1.59979477	      7.50673385	    -13.24996704	     33.05047736	    111.65366584	     88.60768688	     -8.60317116	    -19.95080249	     26.11979394	     96.49863714	     82.95322942
      5.98333330	      0.31050207	     -0.26329280	     -3.97380967	      0.48425390	      0.92639034	     -0.05459765	     -2.40528624	      1.88458094	     -9.74641369	     10.42779463	      0.18199935	      7.83918832	    -28.73435221	     -7.49999987	     21.35979253	     -0.41329417	     -6.22464473	     22.11898387	      0.38604910	      3.94943240	    -16.36805493	     -7.49999987	     -7.53571713	      1.07481002	     -0.63565138	      8.09095078	    -13.37443578	     33.56634614	    111.46136700	     88.61597437	     -9.33680048	    -19.59372967	     25.00080295	     96.26375390	     82.97859741
      6.00000000	     -0.43347272	     -1.28786387	     -4.47401081	      0.45994411	      0.92175565	     -0.05576930	     -0.51769857	      3.28738157	     -9.10250774	     10.29836250	      0.17974033	      9.11478072	    -28.57227118	     -7.49999987	     24.32087039	     -1.84382073	     -5.91313986	     24.26275358	      0.42346494	      5.35465929	    -16.46749113	     -7.49999987	     -8.03109541	      2.62860427	     -0.31013465	     10.64326137	    -13.88715437	     35.36575981	    110.75554717	     88.34574394	    -10.16411503	    -18.84235000	     22.66013328	     96.92176910	     83.84635888
      6.01666670	     -0.84597627	     -2.15484497	     -4.81183960	      0.45362659	      0.92518469	     -0.05987060	      1.13800303	      4.18218276	     -8.92149728	     10.65084195	      0.18589226	      8.94516688	    -28.53828592	     -7.49999987	     26.34102743	     -2.83876208	     -5.33491775	     25.52313461	      0.44546273	      5.56893347	    -16.98604198	     -7.49999987	     -8.84125274	      4.16059999	      1.01022232	     12.19097301	    -14.57328983	     35.62337468	    110.64551694	     88.30278508	     -9.24748009	    -18.13258743	     22.23668512	     96.62805619	     84.01090240
      6.03333330	     -1.89200718	     -2.79628345	     -5.06528392	      0.44218036	      0.92916637	     -0.06101265	      3.84065698	      4.82953661	     -8.95907278	     11.51974054	      0.20105740	      8.43807509	    -28.68763563	     -7.49999987	     28.95136329	     -3.61544219	     -4.88262729	     26.71636561	      0.46628854	      5.45616015	    -17.51760156	     -7.49999987	     -8.92624091	      5.49219243	      2.40680205	     13.17689188	    -15.45530658	     35.66714749	    110.50027225	     88.14250321	     -9.02992202	    -16.99206716	     21.49458469	     96.01036812	     84.32830781
      6.05000000	     -2.18737183	     -2.99432725	     -4.89653699	      0.44289980	      0.93394626	     -0.06183112	      4.96489324	      4.87083256	     -9.30146422	     11.84626771	      0.20675638	      7.67531555	    -28.19331265	     -7.49999987	     30.01704791	     -3.70876171	     -4.14478909	     27.57294282	      0.48123864	      5.61290427	    -17.68301477	     -7.49999987	     -9.22933650	      6.13795136	      3.34360549	     13.15147961	    -16.11961343	     35.03074622	    110.11199550	     87.92293411	     -9.22211556	    -15.76434097	     20.34017025	     95.43650300	     84.41552269
      6.06666670	     -2.89050303	     -2.97907972	     -4.65477614	      0.43188977	      0.93372604	     -0.06265613	      6.74642857	      4.72050926	     -9.68118776	     12.58217453	      0.21960037	      6.70920022	    -28.23650024	     -7.49999987	     31.62426124	     -3.72749650	     -4.11675041	     28.38031744	      0.49532998	      5.51996691	    -18.04501897	     -7.49999987	     -9.22236993	      6.49099667	      3.98675387	     12.53882631	    -16.95698665	     34.48771692	    110.24946087	     87.77403400	     -9.33127574	    -14.54708919	     19.18650256	     95.09678407	     84.64449764
      6.08333330	     -3.39324728	     -2.73795051	     -4.42147376	      0.43215248	      0.93552142	     -0.06228434	      8.00543091	      4.29926866	     -9.99013890	     13.13210965	      0.22919855	      5.31119925	    -28.30267259	     -7.49999987	     32.47973981	     -3.45593922	     -3.87579647	     28.83342643	      0.50323823	      4.73879817	    -18.95856126	     -7.49999987	     -8.94721640	      6.39725631	      4.30525517	     11.29484307	    -17.28316831	     33.47751147	    109.79652351	     87.51770398	     -9.49570886	    -13.42541212	     18.09395271	     94.03360843	     85.02614327
